# xmcd
#
# Track frame offsets:
#	150
#	16648
#	31790
#	48059
#	62519
#	79318
#	97695
#	114015
#	134937
#	156036
#	171218
#	189908
#	206288
#	224361
#	240884
#
# Disc length: 3472 seconds
#
# Revision: 0
# Processed by: cddbd v1.5.1PL0 Copyright (c) Steve Scherf et al.
# Submitted via: audiograbber 1.83.01
#
DISCID=ab0d8e0f
DTITLE=Various Artist - SC8884
DYEAR=1900
DGENRE=KARAOKE
TTITLE0=Brooks and Dunn - That's What It's All About
TTITLE1=Alan Jackson - Too Much Of A Good Thing
TTITLE2=Rascal Flatts - Feels Like Today
TTITLE3=Trick Pony - Bride, The
TTITLE4=Toby Keith - Stays In Mexico
TTITLE5=Rachel Proctor - Where I Belong
TTITLE6=Jimmy and McBride, Martina Buffett - Trip Around The Sun
TTITLE7=Notorious Cherry Bombs, The - It's Hard To Kiss The Lips At Night That 
TTITLE7=Chews You
TTITLE8=John Michael Montgomery - Goes Good With Beer
TTITLE9=Joe Diffie - Tougher Than Nails
TTITLE10=George Strait - I Hate Everything
TTITLE11=Blake Shelton - Some Beach
TTITLE12=Keith Urban - Days Go By
TTITLE13=Diamond Rio - Can't You Tell
TTITLE14=Julie Roberts - Break Down Here
EXTD=
EXTT0=
EXTT1=
EXTT2=
EXTT3=
EXTT4=
EXTT5=
EXTT6=
EXTT7=
EXTT8=
EXTT9=
EXTT10=
EXTT11=
EXTT12=
EXTT13=
EXTT14=
PLAYORDER=
